# xmcd
#
# Track frame offsets:
#	150
#	11824
#	26791
#	41579
#	65288
#	82574
#	99287
#	115313
#	128303
#	144950
#
# Disc length: 2209 seconds
#
# Revision: 4
# Processed by: cddbd v1.5.2PL0 Copyright (c) Steve Scherf et al.
# Submitted via: audiograbber 1.83.01
#
DISCID=6e089f0a
DTITLE=Kris Kristofferson - The Complete Monument and Columbia Albums Collection 
DTITLE=(CD 09) - Easter Island [remastered 2016]
DYEAR=1978
DGENRE=Singer/Songwriter
TTITLE0=Risky Bizness
TTITLE1=How Do You Feel (About Foolin' Around)
TTITLE2=Forever In Your Love
TTITLE3=The Sabre And The Rose
TTITLE4=Spooky Lady's Revenge
TTITLE5=Easter Island
TTITLE6=The Bigger The Fool (The Harder The Fall)
TTITLE7=Lay Me Down (And Love The World Away)
TTITLE8=The Fighter
TTITLE9=Living Legend
EXTD=
EXTT0=
EXTT1=
EXTT2=
EXTT3=
EXTT4=
EXTT5=
EXTT6=
EXTT7=
EXTT8=
EXTT9=
PLAYORDER=
